<svg width="430" height="558" viewBox="0 0 430 558" fill="none" xmlns="http://www.w3.org/2000/svg">
<rect y="1.90735e-05" width="430" height="558" rx="45" fill="#171717"/>
<g opacity="0.1">
<path d="M226.085 133.949L292.366 172.392C299.184 176.356 303.375 183.628 303.375 191.506V268.494C303.375 272.365 302.359 276.168 300.427 279.523C298.494 282.877 295.715 285.666 292.366 287.608L226.085 326.051C222.717 328.004 218.893 329.033 215 329.033C211.107 329.033 207.283 328.004 203.915 326.051L137.634 287.608C134.285 285.666 131.506 282.877 129.573 279.523C127.641 276.168 126.625 272.365 126.625 268.494V191.506C126.625 183.628 130.816 176.344 137.634 172.392L203.915 133.949C207.283 131.996 211.107 130.967 215 130.967C218.893 130.967 222.717 131.996 226.085 133.949ZM213.422 150.336L154.968 184.234L215 219.054L275.032 184.234L216.578 150.336C216.099 150.057 215.555 149.909 215 149.909C214.445 149.909 213.901 150.057 213.422 150.336ZM145.562 200.672V268.494C145.562 269.63 146.156 270.652 147.141 271.221L205.531 305.093V235.454L145.562 200.672ZM224.469 305.093L282.859 271.221C283.338 270.944 283.736 270.547 284.013 270.068C284.29 269.589 284.436 269.047 284.438 268.494V200.672L224.469 235.454V305.093Z" fill="white"/>
</g>
<path d="M69.3908 393.663C69.3908 395.063 69.0606 396.384 68.4002 397.626C67.7397 398.867 66.6831 399.884 65.2302 400.677C63.7773 401.443 61.9149 401.826 59.6431 401.826H54.6504V413H50.1332V385.461H59.6431C61.7564 385.461 63.5395 385.831 64.9924 386.57C66.4718 387.284 67.568 388.261 68.2813 389.503C69.0209 390.744 69.3908 392.131 69.3908 393.663ZM59.6431 398.141C61.3602 398.141 62.6414 397.758 63.4867 396.992C64.332 396.199 64.7547 395.09 64.7547 393.663C64.7547 390.652 63.0508 389.146 59.6431 389.146H54.6504V398.141H59.6431ZM69.9892 401.984C69.9892 399.792 70.4383 397.85 71.3364 396.16C72.261 394.469 73.5026 393.161 75.0611 392.237C76.6461 391.286 78.3896 390.81 80.2916 390.81C82.0086 390.81 83.5012 391.154 84.7691 391.84C86.0636 392.501 87.0938 393.333 87.8599 394.337V391.167H92.4167V413H87.8599V409.751C87.0938 410.781 86.0503 411.64 84.7295 412.326C83.4087 413.013 81.903 413.357 80.2123 413.357C78.3368 413.357 76.6197 412.881 75.0611 411.93C73.5026 410.953 72.261 409.605 71.3364 407.888C70.4383 406.145 69.9892 404.177 69.9892 401.984ZM87.8599 402.064C87.8599 400.558 87.5429 399.25 86.9089 398.141C86.3013 397.031 85.4956 396.186 84.4918 395.605C83.488 395.024 82.4049 394.733 81.2426 394.733C80.0802 394.733 78.9972 395.024 77.9934 395.605C76.9895 396.16 76.1706 396.992 75.5366 398.101C74.9291 399.184 74.6253 400.479 74.6253 401.984C74.6253 403.49 74.9291 404.811 75.5366 405.947C76.1706 407.083 76.9895 407.954 77.9934 408.562C79.0236 409.143 80.1067 409.434 81.2426 409.434C82.4049 409.434 83.488 409.143 84.4918 408.562C85.4956 407.981 86.3013 407.136 86.9089 406.026C87.5429 404.89 87.8599 403.569 87.8599 402.064ZM94.64 402.064C94.64 399.818 95.0891 397.85 95.9873 396.16C96.9118 394.442 98.1798 393.122 99.7912 392.197C101.403 391.273 103.252 390.81 105.339 390.81C107.98 390.81 110.16 391.444 111.877 392.712C113.62 393.954 114.796 395.737 115.403 398.062H110.529C110.133 396.978 109.499 396.133 108.627 395.526C107.756 394.918 106.659 394.614 105.339 394.614C103.49 394.614 102.01 395.275 100.901 396.595C99.8176 397.89 99.2761 399.713 99.2761 402.064C99.2761 404.415 99.8176 406.251 100.901 407.571C102.01 408.892 103.49 409.553 105.339 409.553C107.954 409.553 109.684 408.404 110.529 406.105H115.403C114.769 408.324 113.581 410.094 111.837 411.415C110.094 412.709 107.927 413.357 105.339 413.357C103.252 413.357 101.403 412.894 99.7912 411.97C98.1798 411.019 96.9118 409.698 95.9873 408.007C95.0891 406.29 94.64 404.309 94.64 402.064ZM126.339 402.103L136.404 413H130.302L122.218 403.609V413H117.701V383.678H122.218V400.716L130.143 391.167H136.404L126.339 402.103ZM135.932 401.984C135.932 399.792 136.381 397.85 137.279 396.16C138.203 394.469 139.445 393.161 141.004 392.237C142.589 391.286 144.332 390.81 146.234 390.81C147.951 390.81 149.444 391.154 150.712 391.84C152.006 392.501 153.036 393.333 153.802 394.337V391.167H158.359V413H153.802V409.751C153.036 410.781 151.993 411.64 150.672 412.326C149.351 413.013 147.845 413.357 146.155 413.357C144.279 413.357 142.562 412.881 141.004 411.93C139.445 410.953 138.203 409.605 137.279 407.888C136.381 406.145 135.932 404.177 135.932 401.984ZM153.802 402.064C153.802 400.558 153.485 399.25 152.851 398.141C152.244 397.031 151.438 396.186 150.434 395.605C149.43 395.024 148.347 394.733 147.185 394.733C146.023 394.733 144.94 395.024 143.936 395.605C142.932 396.16 142.113 396.992 141.479 398.101C140.872 399.184 140.568 400.479 140.568 401.984C140.568 403.49 140.872 404.811 141.479 405.947C142.113 407.083 142.932 407.954 143.936 408.562C144.966 409.143 146.049 409.434 147.185 409.434C148.347 409.434 149.43 409.143 150.434 408.562C151.438 407.981 152.244 407.136 152.851 406.026C153.485 404.89 153.802 403.569 153.802 402.064ZM170.885 390.81C172.576 390.81 174.068 391.154 175.362 391.84C176.683 392.501 177.713 393.333 178.453 394.337V391.167H183.01V413.357C183.01 415.364 182.587 417.147 181.742 418.706C180.897 420.291 179.668 421.532 178.057 422.431C176.472 423.329 174.57 423.778 172.351 423.778C169.392 423.778 166.936 423.078 164.981 421.678C163.026 420.304 161.917 418.429 161.652 416.051H166.13C166.473 417.187 167.2 418.098 168.309 418.785C169.445 419.498 170.792 419.855 172.351 419.855C174.174 419.855 175.64 419.3 176.749 418.191C177.885 417.081 178.453 415.47 178.453 413.357V409.711C177.687 410.741 176.644 411.613 175.323 412.326C174.028 413.013 172.549 413.357 170.885 413.357C168.983 413.357 167.239 412.881 165.654 411.93C164.096 410.953 162.854 409.605 161.93 407.888C161.032 406.145 160.582 404.177 160.582 401.984C160.582 399.792 161.032 397.85 161.93 396.16C162.854 394.469 164.096 393.161 165.654 392.237C167.239 391.286 168.983 390.81 170.885 390.81ZM178.453 402.064C178.453 400.558 178.136 399.25 177.502 398.141C176.895 397.031 176.089 396.186 175.085 395.605C174.081 395.024 172.998 394.733 171.836 394.733C170.674 394.733 169.59 395.024 168.587 395.605C167.583 396.16 166.764 396.992 166.13 398.101C165.522 399.184 165.219 400.479 165.219 401.984C165.219 403.49 165.522 404.811 166.13 405.947C166.764 407.083 167.583 407.954 168.587 408.562C169.617 409.143 170.7 409.434 171.836 409.434C172.998 409.434 174.081 409.143 175.085 408.562C176.089 407.981 176.895 407.136 177.502 406.026C178.136 404.89 178.453 403.569 178.453 402.064ZM206.749 401.548C206.749 402.367 206.697 403.107 206.591 403.767H189.909C190.041 405.511 190.688 406.911 191.851 407.968C193.013 409.024 194.439 409.553 196.13 409.553C198.56 409.553 200.277 408.536 201.281 406.502H206.155C205.495 408.509 204.293 410.16 202.549 411.455C200.832 412.723 198.692 413.357 196.13 413.357C194.043 413.357 192.168 412.894 190.503 411.97C188.866 411.019 187.571 409.698 186.62 408.007C185.696 406.29 185.233 404.309 185.233 402.064C185.233 399.818 185.682 397.85 186.581 396.16C187.505 394.442 188.786 393.122 190.424 392.197C192.088 391.273 193.99 390.81 196.13 390.81C198.191 390.81 200.026 391.259 201.638 392.157C203.249 393.056 204.504 394.324 205.402 395.961C206.3 397.573 206.749 399.435 206.749 401.548ZM202.034 400.122C202.008 398.458 201.413 397.124 200.251 396.12C199.089 395.116 197.649 394.614 195.932 394.614C194.373 394.614 193.039 395.116 191.93 396.12C190.82 397.097 190.16 398.431 189.949 400.122H202.034ZM226.075 385.461C229.007 385.461 231.569 386.029 233.762 387.165C235.981 388.274 237.684 389.886 238.873 391.999C240.088 394.086 240.696 396.529 240.696 399.33C240.696 402.13 240.088 404.56 238.873 406.62C237.684 408.681 235.981 410.266 233.762 411.375C231.569 412.458 229.007 413 226.075 413H217.08V385.461H226.075ZM226.075 409.315C229.297 409.315 231.767 408.443 233.484 406.7C235.201 404.956 236.06 402.499 236.06 399.33C236.06 396.133 235.201 393.637 233.484 391.84C231.767 390.044 229.297 389.146 226.075 389.146H221.597V409.315H226.075ZM262.979 401.548C262.979 402.367 262.926 403.107 262.821 403.767H246.139C246.271 405.511 246.918 406.911 248.08 407.968C249.243 409.024 250.669 409.553 252.36 409.553C254.79 409.553 256.507 408.536 257.511 406.502H262.385C261.724 408.509 260.523 410.16 258.779 411.455C257.062 412.723 254.922 413.357 252.36 413.357C250.273 413.357 248.397 412.894 246.733 411.97C245.095 411.019 243.801 409.698 242.85 408.007C241.925 406.29 241.463 404.309 241.463 402.064C241.463 399.818 241.912 397.85 242.81 396.16C243.735 394.442 245.016 393.122 246.654 392.197C248.318 391.273 250.22 390.81 252.36 390.81C254.42 390.81 256.256 391.259 257.868 392.157C259.479 393.056 260.734 394.324 261.632 395.961C262.53 397.573 262.979 399.435 262.979 401.548ZM258.264 400.122C258.237 398.458 257.643 397.124 256.481 396.12C255.318 395.116 253.879 394.614 252.162 394.614C250.603 394.614 249.269 395.116 248.16 396.12C247.05 397.097 246.39 398.431 246.178 400.122H258.264ZM273.145 413.357C271.428 413.357 269.883 413.053 268.509 412.445C267.162 411.811 266.092 410.966 265.3 409.909C264.507 408.826 264.085 407.624 264.032 406.303H268.707C268.787 407.228 269.223 408.007 270.015 408.641C270.834 409.249 271.851 409.553 273.066 409.553C274.334 409.553 275.312 409.315 275.998 408.839C276.712 408.337 277.068 407.703 277.068 406.937C277.068 406.119 276.672 405.511 275.88 405.115C275.113 404.718 273.885 404.283 272.194 403.807C270.557 403.358 269.223 402.922 268.192 402.499C267.162 402.077 266.264 401.43 265.498 400.558C264.758 399.686 264.388 398.537 264.388 397.111C264.388 395.948 264.732 394.892 265.419 393.941C266.105 392.963 267.083 392.197 268.351 391.642C269.645 391.088 271.125 390.81 272.789 390.81C275.272 390.81 277.266 391.444 278.772 392.712C280.304 393.954 281.123 395.658 281.229 397.824H276.712C276.632 396.846 276.236 396.067 275.523 395.486C274.81 394.905 273.845 394.614 272.63 394.614C271.442 394.614 270.53 394.839 269.896 395.288C269.262 395.737 268.945 396.331 268.945 397.071C268.945 397.652 269.157 398.141 269.579 398.537C270.002 398.933 270.517 399.25 271.125 399.488C271.732 399.699 272.63 399.977 273.819 400.32C275.404 400.743 276.698 401.179 277.702 401.628C278.732 402.05 279.617 402.684 280.357 403.53C281.097 404.375 281.48 405.498 281.506 406.898C281.506 408.139 281.163 409.249 280.476 410.226C279.789 411.204 278.812 411.97 277.544 412.524C276.302 413.079 274.836 413.357 273.145 413.357ZM286.481 388.274C285.662 388.274 284.976 387.997 284.421 387.442C283.866 386.887 283.589 386.201 283.589 385.382C283.589 384.563 283.866 383.876 284.421 383.321C284.976 382.766 285.662 382.489 286.481 382.489C287.274 382.489 287.947 382.766 288.502 383.321C289.057 383.876 289.334 384.563 289.334 385.382C289.334 386.201 289.057 386.887 288.502 387.442C287.947 387.997 287.274 388.274 286.481 388.274ZM288.7 391.167V413H284.183V391.167H288.7ZM301.224 390.81C302.914 390.81 304.407 391.154 305.701 391.84C307.022 392.501 308.052 393.333 308.792 394.337V391.167H313.349V413.357C313.349 415.364 312.926 417.147 312.081 418.706C311.235 420.291 310.007 421.532 308.396 422.431C306.811 423.329 304.909 423.778 302.69 423.778C299.731 423.778 297.274 423.078 295.319 421.678C293.365 420.304 292.255 418.429 291.991 416.051H296.469C296.812 417.187 297.538 418.098 298.648 418.785C299.784 419.498 301.131 419.855 302.69 419.855C304.512 419.855 305.978 419.3 307.088 418.191C308.224 417.081 308.792 415.47 308.792 413.357V409.711C308.026 410.741 306.982 411.613 305.661 412.326C304.367 413.013 302.888 413.357 301.224 413.357C299.322 413.357 297.578 412.881 295.993 411.93C294.434 410.953 293.193 409.605 292.268 407.888C291.37 406.145 290.921 404.177 290.921 401.984C290.921 399.792 291.37 397.85 292.268 396.16C293.193 394.469 294.434 393.161 295.993 392.237C297.578 391.286 299.322 390.81 301.224 390.81ZM308.792 402.064C308.792 400.558 308.475 399.25 307.841 398.141C307.233 397.031 306.428 396.186 305.424 395.605C304.42 395.024 303.337 394.733 302.174 394.733C301.012 394.733 299.929 395.024 298.925 395.605C297.921 396.16 297.103 396.992 296.469 398.101C295.861 399.184 295.557 400.479 295.557 401.984C295.557 403.49 295.861 404.811 296.469 405.947C297.103 407.083 297.921 407.954 298.925 408.562C299.956 409.143 301.039 409.434 302.174 409.434C303.337 409.434 304.42 409.143 305.424 408.562C306.428 407.981 307.233 407.136 307.841 406.026C308.475 404.89 308.792 403.569 308.792 402.064ZM328.093 390.81C329.81 390.81 331.343 391.167 332.69 391.88C334.063 392.593 335.133 393.65 335.899 395.05C336.665 396.45 337.048 398.141 337.048 400.122V413H332.571V400.796C332.571 398.841 332.082 397.348 331.105 396.318C330.127 395.261 328.793 394.733 327.103 394.733C325.412 394.733 324.065 395.261 323.061 396.318C322.084 397.348 321.595 398.841 321.595 400.796V413H317.078V391.167H321.595V393.663C322.335 392.765 323.272 392.065 324.408 391.563C325.571 391.061 326.799 390.81 328.093 390.81Z" fill="white"/>
<path d="M66.8068 447.245L62.8205 461H60.8076L57.6106 449.929L54.2952 461L52.3021 461.02L48.4539 447.245H50.3681L53.3677 458.908L56.6831 447.245H58.696L61.8535 458.869L64.8728 447.245H66.8068ZM78.1392 455.178C78.1392 455.52 78.1195 455.882 78.08 456.264H69.4364C69.5022 457.329 69.8639 458.165 70.5218 458.77C71.1927 459.362 72.0018 459.658 72.9491 459.658C73.7253 459.658 74.3699 459.48 74.883 459.125C75.4093 458.757 75.7777 458.27 75.9882 457.665H77.9221C77.6327 458.704 77.0538 459.553 76.1855 460.211C75.3172 460.855 74.2384 461.178 72.9491 461.178C71.9229 461.178 71.002 460.947 70.1863 460.487C69.3837 460.026 68.7522 459.375 68.2918 458.533C67.8313 457.678 67.6011 456.691 67.6011 455.573C67.6011 454.455 67.8247 453.475 68.272 452.633C68.7194 451.791 69.3443 451.146 70.1468 450.699C70.9625 450.238 71.8966 450.008 72.9491 450.008C73.9753 450.008 74.883 450.232 75.6724 450.679C76.4618 451.126 77.067 451.745 77.488 452.534C77.9221 453.31 78.1392 454.192 78.1392 455.178ZM76.2842 454.803C76.2842 454.119 76.1329 453.534 75.8303 453.047C75.5277 452.547 75.1133 452.172 74.587 451.922C74.0739 451.659 73.5016 451.528 72.8701 451.528C71.9624 451.528 71.1861 451.817 70.5415 452.396C69.91 452.975 69.5482 453.777 69.4561 454.803H76.2842ZM89.4873 461.178C88.4743 461.178 87.5534 460.947 86.7245 460.487C85.9088 460.026 85.2642 459.375 84.7906 458.533C84.3301 457.678 84.0999 456.691 84.0999 455.573C84.0999 454.468 84.3367 453.494 84.8103 452.652C85.2971 451.797 85.9549 451.146 86.7837 450.699C87.6126 450.238 88.5401 450.008 89.5663 450.008C90.5924 450.008 91.52 450.238 92.3488 450.699C93.1776 451.146 93.8289 451.791 94.3025 452.633C94.7893 453.475 95.0327 454.455 95.0327 455.573C95.0327 456.691 94.7827 457.678 94.2828 458.533C93.796 459.375 93.1316 460.026 92.2896 460.487C91.4476 460.947 90.5135 461.178 89.4873 461.178ZM89.4873 459.599C90.132 459.599 90.7372 459.448 91.3029 459.145C91.8686 458.842 92.3225 458.388 92.6645 457.783C93.0198 457.178 93.1974 456.441 93.1974 455.573C93.1974 454.705 93.0263 453.968 92.6843 453.363C92.3422 452.758 91.8949 452.31 91.3423 452.021C90.7898 451.718 90.1912 451.567 89.5465 451.567C88.8887 451.567 88.2835 451.718 87.731 452.021C87.1916 452.31 86.7574 452.758 86.4285 453.363C86.0996 453.968 85.9351 454.705 85.9351 455.573C85.9351 456.455 86.093 457.198 86.4088 457.803C86.7377 458.408 87.1718 458.862 87.7112 459.165C88.2506 459.454 88.8427 459.599 89.4873 459.599ZM101.295 451.666H99.0251V461H97.2293V451.666H95.8282V450.186H97.2293V449.416C97.2293 448.206 97.5385 447.324 98.1568 446.772C98.7883 446.206 99.7948 445.923 101.176 445.923V447.423C100.387 447.423 99.8277 447.581 99.4988 447.896C99.183 448.199 99.0251 448.705 99.0251 449.416V450.186H101.295V451.666ZM107.289 451.666H105.02V461H103.224V451.666H101.823V450.186H103.224V449.416C103.224 448.206 103.533 447.324 104.151 446.772C104.783 446.206 105.789 445.923 107.171 445.923V447.423C106.381 447.423 105.822 447.581 105.493 447.896C105.178 448.199 105.02 448.705 105.02 449.416V450.186H107.289V451.666ZM118.75 455.178C118.75 455.52 118.73 455.882 118.691 456.264H110.047C110.113 457.329 110.475 458.165 111.133 458.77C111.804 459.362 112.613 459.658 113.56 459.658C114.336 459.658 114.981 459.48 115.494 459.125C116.02 458.757 116.389 458.27 116.599 457.665H118.533C118.244 458.704 117.665 459.553 116.796 460.211C115.928 460.855 114.849 461.178 113.56 461.178C112.534 461.178 111.613 460.947 110.797 460.487C109.995 460.026 109.363 459.375 108.903 458.533C108.442 457.678 108.212 456.691 108.212 455.573C108.212 454.455 108.436 453.475 108.883 452.633C109.33 451.791 109.955 451.146 110.758 450.699C111.573 450.238 112.508 450.008 113.56 450.008C114.586 450.008 115.494 450.232 116.283 450.679C117.073 451.126 117.678 451.745 118.099 452.534C118.533 453.31 118.75 454.192 118.75 455.178ZM116.895 454.803C116.895 454.119 116.744 453.534 116.441 453.047C116.139 452.547 115.724 452.172 115.198 451.922C114.685 451.659 114.113 451.528 113.481 451.528C112.573 451.528 111.797 451.817 111.152 452.396C110.521 452.975 110.159 453.777 110.067 454.803H116.895ZM122.416 451.942C122.732 451.324 123.179 450.843 123.758 450.501C124.35 450.159 125.067 449.988 125.909 449.988V451.843H125.436C123.423 451.843 122.416 452.935 122.416 455.119V461H120.621V450.186H122.416V451.942ZM131.311 461.178C130.482 461.178 129.739 461.039 129.081 460.763C128.423 460.474 127.903 460.079 127.522 459.579C127.14 459.066 126.93 458.481 126.89 457.823H128.745C128.798 458.362 129.048 458.803 129.495 459.145C129.956 459.487 130.554 459.658 131.291 459.658C131.975 459.658 132.515 459.507 132.909 459.204C133.304 458.902 133.501 458.52 133.501 458.06C133.501 457.586 133.291 457.237 132.87 457.014C132.449 456.777 131.798 456.547 130.916 456.323C130.114 456.112 129.456 455.902 128.943 455.691C128.443 455.468 128.009 455.145 127.64 454.724C127.285 454.29 127.107 453.725 127.107 453.027C127.107 452.475 127.272 451.968 127.601 451.508C127.93 451.047 128.397 450.686 129.002 450.422C129.607 450.146 130.298 450.008 131.074 450.008C132.271 450.008 133.238 450.311 133.975 450.916C134.712 451.521 135.106 452.35 135.159 453.402H133.363C133.324 452.837 133.094 452.383 132.673 452.041C132.265 451.699 131.712 451.528 131.015 451.528C130.37 451.528 129.857 451.666 129.476 451.942C129.094 452.218 128.903 452.58 128.903 453.027C128.903 453.383 129.015 453.679 129.239 453.915C129.476 454.139 129.765 454.323 130.107 454.468C130.462 454.599 130.949 454.751 131.567 454.922C132.344 455.132 132.975 455.343 133.462 455.553C133.949 455.751 134.363 456.053 134.705 456.461C135.06 456.869 135.245 457.402 135.258 458.06C135.258 458.652 135.093 459.184 134.764 459.658C134.435 460.132 133.968 460.507 133.363 460.783C132.771 461.046 132.087 461.178 131.311 461.178ZM146.08 459.342L149.435 450.186H151.349L147.106 461H145.014L140.771 450.186H142.705L146.08 459.342ZM151.945 455.553C151.945 454.448 152.169 453.481 152.616 452.652C153.063 451.81 153.675 451.159 154.451 450.699C155.241 450.238 156.116 450.008 157.076 450.008C158.023 450.008 158.845 450.212 159.543 450.62C160.24 451.028 160.76 451.541 161.102 452.159V450.186H162.917V461H161.102V458.987C160.747 459.619 160.214 460.145 159.503 460.566C158.806 460.974 157.99 461.178 157.056 461.178C156.096 461.178 155.228 460.941 154.451 460.467C153.675 459.994 153.063 459.329 152.616 458.474C152.169 457.619 151.945 456.645 151.945 455.553ZM161.102 455.573C161.102 454.757 160.937 454.047 160.608 453.442C160.279 452.837 159.832 452.376 159.266 452.06C158.714 451.731 158.102 451.567 157.431 451.567C156.76 451.567 156.148 451.725 155.596 452.041C155.043 452.356 154.603 452.817 154.274 453.422C153.945 454.027 153.78 454.738 153.78 455.553C153.78 456.382 153.945 457.106 154.274 457.724C154.603 458.329 155.043 458.796 155.596 459.125C156.148 459.441 156.76 459.599 157.431 459.599C158.102 459.599 158.714 459.441 159.266 459.125C159.832 458.796 160.279 458.329 160.608 457.724C160.937 457.106 161.102 456.389 161.102 455.573ZM167.248 451.942C167.564 451.324 168.011 450.843 168.59 450.501C169.182 450.159 169.899 449.988 170.741 449.988V451.843H170.267C168.254 451.843 167.248 452.935 167.248 455.119V461H165.452V450.186H167.248V451.942ZM173.241 448.429C172.899 448.429 172.61 448.311 172.373 448.074C172.136 447.837 172.018 447.548 172.018 447.206C172.018 446.864 172.136 446.574 172.373 446.337C172.61 446.101 172.899 445.982 173.241 445.982C173.57 445.982 173.847 446.101 174.07 446.337C174.307 446.574 174.425 446.864 174.425 447.206C174.425 447.548 174.307 447.837 174.07 448.074C173.847 448.311 173.57 448.429 173.241 448.429ZM174.11 450.186V461H172.314V450.186H174.11ZM181.387 461.178C180.374 461.178 179.453 460.947 178.624 460.487C177.808 460.026 177.164 459.375 176.69 458.533C176.23 457.678 175.999 456.691 175.999 455.573C175.999 454.468 176.236 453.494 176.71 452.652C177.197 451.797 177.854 451.146 178.683 450.699C179.512 450.238 180.44 450.008 181.466 450.008C182.492 450.008 183.42 450.238 184.248 450.699C185.077 451.146 185.728 451.791 186.202 452.633C186.689 453.475 186.932 454.455 186.932 455.573C186.932 456.691 186.682 457.678 186.182 458.533C185.696 459.375 185.031 460.026 184.189 460.487C183.347 460.947 182.413 461.178 181.387 461.178ZM181.387 459.599C182.032 459.599 182.637 459.448 183.202 459.145C183.768 458.842 184.222 458.388 184.564 457.783C184.919 457.178 185.097 456.441 185.097 455.573C185.097 454.705 184.926 453.968 184.584 453.363C184.242 452.758 183.794 452.31 183.242 452.021C182.689 451.718 182.091 451.567 181.446 451.567C180.788 451.567 180.183 451.718 179.631 452.021C179.091 452.31 178.657 452.758 178.328 453.363C177.999 453.968 177.835 454.705 177.835 455.573C177.835 456.455 177.993 457.198 178.308 457.803C178.637 458.408 179.071 458.862 179.611 459.165C180.15 459.454 180.742 459.599 181.387 459.599ZM198.384 450.186V461H196.588V459.401C196.246 459.954 195.766 460.388 195.148 460.704C194.543 461.007 193.872 461.158 193.135 461.158C192.293 461.158 191.536 460.987 190.866 460.645C190.195 460.29 189.662 459.763 189.267 459.066C188.885 458.369 188.695 457.52 188.695 456.52V450.186H190.471V456.283C190.471 457.349 190.741 458.171 191.28 458.75C191.819 459.316 192.556 459.599 193.49 459.599C194.451 459.599 195.207 459.303 195.76 458.711C196.312 458.119 196.588 457.257 196.588 456.126V450.186H198.384ZM204.745 461.178C203.916 461.178 203.173 461.039 202.515 460.763C201.857 460.474 201.337 460.079 200.956 459.579C200.574 459.066 200.364 458.481 200.324 457.823H202.179C202.232 458.362 202.482 458.803 202.929 459.145C203.39 459.487 203.988 459.658 204.725 459.658C205.409 459.658 205.949 459.507 206.343 459.204C206.738 458.902 206.935 458.52 206.935 458.06C206.935 457.586 206.725 457.237 206.304 457.014C205.883 456.777 205.232 456.547 204.35 456.323C203.548 456.112 202.89 455.902 202.377 455.691C201.877 455.468 201.443 455.145 201.074 454.724C200.719 454.29 200.541 453.725 200.541 453.027C200.541 452.475 200.706 451.968 201.035 451.508C201.364 451.047 201.831 450.686 202.436 450.422C203.041 450.146 203.732 450.008 204.508 450.008C205.705 450.008 206.672 450.311 207.409 450.916C208.146 451.521 208.54 452.35 208.593 453.402H206.797C206.758 452.837 206.528 452.383 206.107 452.041C205.699 451.699 205.146 451.528 204.449 451.528C203.804 451.528 203.291 451.666 202.91 451.942C202.528 452.218 202.337 452.58 202.337 453.027C202.337 453.383 202.449 453.679 202.673 453.915C202.91 454.139 203.199 454.323 203.541 454.468C203.896 454.599 204.383 454.751 205.001 454.922C205.778 455.132 206.409 455.343 206.896 455.553C207.383 455.751 207.797 456.053 208.139 456.461C208.494 456.869 208.679 457.402 208.692 458.06C208.692 458.652 208.527 459.184 208.198 459.658C207.869 460.132 207.402 460.507 206.797 460.783C206.205 461.046 205.521 461.178 204.745 461.178ZM217.284 452.179C217.639 451.56 218.165 451.047 218.863 450.639C219.573 450.218 220.395 450.008 221.329 450.008C222.29 450.008 223.158 450.238 223.934 450.699C224.724 451.159 225.342 451.81 225.789 452.652C226.237 453.481 226.46 454.448 226.46 455.553C226.46 456.645 226.237 457.619 225.789 458.474C225.342 459.329 224.724 459.994 223.934 460.467C223.158 460.941 222.29 461.178 221.329 461.178C220.408 461.178 219.593 460.974 218.882 460.566C218.185 460.145 217.652 459.625 217.284 459.007V466.131H215.488V450.186H217.284V452.179ZM224.625 455.553C224.625 454.738 224.461 454.027 224.132 453.422C223.803 452.817 223.355 452.356 222.79 452.041C222.237 451.725 221.625 451.567 220.954 451.567C220.297 451.567 219.685 451.731 219.119 452.06C218.567 452.376 218.119 452.843 217.777 453.461C217.448 454.067 217.284 454.771 217.284 455.573C217.284 456.389 217.448 457.106 217.777 457.724C218.119 458.329 218.567 458.796 219.119 459.125C219.685 459.441 220.297 459.599 220.954 459.599C221.625 459.599 222.237 459.441 222.79 459.125C223.355 458.796 223.803 458.329 224.132 457.724C224.461 457.106 224.625 456.382 224.625 455.553ZM230.12 451.942C230.436 451.324 230.883 450.843 231.462 450.501C232.054 450.159 232.771 449.988 233.613 449.988V451.843H233.139C231.126 451.843 230.12 452.935 230.12 455.119V461H228.324V450.186H230.12V451.942ZM236.113 448.429C235.771 448.429 235.482 448.311 235.245 448.074C235.008 447.837 234.89 447.548 234.89 447.206C234.89 446.864 235.008 446.574 235.245 446.337C235.482 446.101 235.771 445.982 236.113 445.982C236.442 445.982 236.719 446.101 236.942 446.337C237.179 446.574 237.297 446.864 237.297 447.206C237.297 447.548 237.179 447.837 236.942 448.074C236.719 448.311 236.442 448.429 236.113 448.429ZM236.982 450.186V461H235.186V450.186H236.982ZM244.811 449.988C246.127 449.988 247.193 450.389 248.008 451.192C248.824 451.981 249.232 453.126 249.232 454.626V461H247.456V454.882C247.456 453.804 247.186 452.981 246.647 452.416C246.107 451.837 245.371 451.547 244.436 451.547C243.489 451.547 242.733 451.843 242.167 452.435C241.614 453.027 241.338 453.889 241.338 455.02V461H239.542V450.186H241.338V451.725C241.693 451.172 242.174 450.745 242.779 450.442C243.397 450.14 244.075 449.988 244.811 449.988ZM253.856 451.666V458.04C253.856 458.566 253.968 458.941 254.191 459.165C254.415 459.375 254.803 459.48 255.356 459.48H256.678V461H255.06C254.06 461 253.31 460.77 252.81 460.309C252.31 459.849 252.06 459.092 252.06 458.04V451.666H250.659V450.186H252.06V447.462H253.856V450.186H256.678V451.666H253.856ZM259.281 448.429C258.939 448.429 258.65 448.311 258.413 448.074C258.176 447.837 258.058 447.548 258.058 447.206C258.058 446.864 258.176 446.574 258.413 446.337C258.65 446.101 258.939 445.982 259.281 445.982C259.61 445.982 259.886 446.101 260.11 446.337C260.347 446.574 260.465 446.864 260.465 447.206C260.465 447.548 260.347 447.837 260.11 448.074C259.886 448.311 259.61 448.429 259.281 448.429ZM260.15 450.186V461H258.354V450.186H260.15ZM267.979 449.988C269.295 449.988 270.361 450.389 271.176 451.192C271.992 451.981 272.4 453.126 272.4 454.626V461H270.624V454.882C270.624 453.804 270.354 452.981 269.815 452.416C269.275 451.837 268.538 451.547 267.604 451.547C266.657 451.547 265.901 451.843 265.335 452.435C264.782 453.027 264.506 453.889 264.506 455.02V461H262.71V450.186H264.506V451.725C264.861 451.172 265.342 450.745 265.947 450.442C266.565 450.14 267.243 449.988 267.979 449.988ZM279.293 450.008C280.227 450.008 281.043 450.212 281.74 450.62C282.451 451.028 282.977 451.541 283.319 452.159V450.186H285.135V461.237C285.135 462.223 284.924 463.098 284.503 463.861C284.082 464.638 283.477 465.243 282.688 465.677C281.911 466.111 281.004 466.328 279.964 466.328C278.543 466.328 277.359 465.993 276.412 465.322C275.465 464.651 274.906 463.736 274.735 462.579H276.511C276.708 463.237 277.116 463.763 277.734 464.157C278.353 464.565 279.096 464.769 279.964 464.769C280.951 464.769 281.753 464.46 282.372 463.842C283.003 463.223 283.319 462.355 283.319 461.237V458.967C282.964 459.599 282.438 460.125 281.74 460.546C281.043 460.967 280.227 461.178 279.293 461.178C278.333 461.178 277.458 460.941 276.669 460.467C275.892 459.994 275.281 459.329 274.833 458.474C274.386 457.619 274.162 456.645 274.162 455.553C274.162 454.448 274.386 453.481 274.833 452.652C275.281 451.81 275.892 451.159 276.669 450.699C277.458 450.238 278.333 450.008 279.293 450.008ZM283.319 455.573C283.319 454.757 283.155 454.047 282.826 453.442C282.497 452.837 282.049 452.376 281.484 452.06C280.931 451.731 280.319 451.567 279.648 451.567C278.977 451.567 278.366 451.725 277.813 452.041C277.261 452.356 276.82 452.817 276.491 453.422C276.162 454.027 275.998 454.738 275.998 455.553C275.998 456.382 276.162 457.106 276.491 457.724C276.82 458.329 277.261 458.796 277.813 459.125C278.366 459.441 278.977 459.599 279.648 459.599C280.319 459.599 280.931 459.441 281.484 459.125C282.049 458.796 282.497 458.329 282.826 457.724C283.155 457.106 283.319 456.389 283.319 455.573ZM296.259 461.178C295.43 461.178 294.687 461.039 294.029 460.763C293.371 460.474 292.852 460.079 292.47 459.579C292.088 459.066 291.878 458.481 291.839 457.823H293.694C293.746 458.362 293.996 458.803 294.443 459.145C294.904 459.487 295.503 459.658 296.239 459.658C296.923 459.658 297.463 459.507 297.857 459.204C298.252 458.902 298.45 458.52 298.45 458.06C298.45 457.586 298.239 457.237 297.818 457.014C297.397 456.777 296.746 456.547 295.864 456.323C295.062 456.112 294.404 455.902 293.891 455.691C293.391 455.468 292.957 455.145 292.588 454.724C292.233 454.29 292.056 453.725 292.056 453.027C292.056 452.475 292.22 451.968 292.549 451.508C292.878 451.047 293.345 450.686 293.95 450.422C294.555 450.146 295.246 450.008 296.022 450.008C297.219 450.008 298.186 450.311 298.923 450.916C299.66 451.521 300.055 452.35 300.107 453.402H298.311C298.272 452.837 298.042 452.383 297.621 452.041C297.213 451.699 296.66 451.528 295.963 451.528C295.318 451.528 294.805 451.666 294.424 451.942C294.042 452.218 293.851 452.58 293.851 453.027C293.851 453.383 293.963 453.679 294.187 453.915C294.424 454.139 294.713 454.323 295.055 454.468C295.41 454.599 295.897 454.751 296.516 454.922C297.292 455.132 297.923 455.343 298.41 455.553C298.897 455.751 299.311 456.053 299.653 456.461C300.009 456.869 300.193 457.402 300.206 458.06C300.206 458.652 300.041 459.184 299.713 459.658C299.384 460.132 298.917 460.507 298.311 460.783C297.719 461.046 297.035 461.178 296.259 461.178ZM312.108 455.178C312.108 455.52 312.088 455.882 312.049 456.264H303.405C303.471 457.329 303.833 458.165 304.491 458.77C305.162 459.362 305.971 459.658 306.918 459.658C307.694 459.658 308.339 459.48 308.852 459.125C309.378 458.757 309.747 458.27 309.957 457.665H311.891C311.602 458.704 311.023 459.553 310.154 460.211C309.286 460.855 308.207 461.178 306.918 461.178C305.892 461.178 304.971 460.947 304.155 460.487C303.353 460.026 302.721 459.375 302.261 458.533C301.8 457.678 301.57 456.691 301.57 455.573C301.57 454.455 301.794 453.475 302.241 452.633C302.688 451.791 303.313 451.146 304.116 450.699C304.931 450.238 305.865 450.008 306.918 450.008C307.944 450.008 308.852 450.232 309.641 450.679C310.431 451.126 311.036 451.745 311.457 452.534C311.891 453.31 312.108 454.192 312.108 455.178ZM310.253 454.803C310.253 454.119 310.102 453.534 309.799 453.047C309.497 452.547 309.082 452.172 308.556 451.922C308.043 451.659 307.471 451.528 306.839 451.528C305.931 451.528 305.155 451.817 304.51 452.396C303.879 452.975 303.517 453.777 303.425 454.803H310.253ZM315.774 451.942C316.09 451.324 316.537 450.843 317.116 450.501C317.708 450.159 318.425 449.988 319.267 449.988V451.843H318.794C316.781 451.843 315.774 452.935 315.774 455.119V461H313.979V450.186H315.774V451.942ZM324.866 459.342L328.221 450.186H330.135L325.892 461H323.8L319.558 450.186H321.492L324.866 459.342ZM332.33 448.429C331.988 448.429 331.698 448.311 331.462 448.074C331.225 447.837 331.106 447.548 331.106 447.206C331.106 446.864 331.225 446.574 331.462 446.337C331.698 446.101 331.988 445.982 332.33 445.982C332.659 445.982 332.935 446.101 333.159 446.337C333.396 446.574 333.514 446.864 333.514 447.206C333.514 447.548 333.396 447.837 333.159 448.074C332.935 448.311 332.659 448.429 332.33 448.429ZM333.198 450.186V461H331.402V450.186H333.198ZM335.088 455.573C335.088 454.455 335.312 453.481 335.759 452.652C336.206 451.81 336.824 451.159 337.614 450.699C338.416 450.238 339.331 450.008 340.357 450.008C341.686 450.008 342.778 450.33 343.633 450.975C344.501 451.62 345.073 452.514 345.35 453.659H343.416C343.232 453.001 342.87 452.481 342.33 452.1C341.804 451.718 341.146 451.528 340.357 451.528C339.331 451.528 338.502 451.883 337.87 452.593C337.239 453.29 336.923 454.284 336.923 455.573C336.923 456.876 337.239 457.882 337.87 458.592C338.502 459.303 339.331 459.658 340.357 459.658C341.146 459.658 341.804 459.474 342.33 459.105C342.857 458.737 343.218 458.211 343.416 457.527H345.35C345.06 458.632 344.481 459.52 343.613 460.191C342.745 460.849 341.659 461.178 340.357 461.178C339.331 461.178 338.416 460.947 337.614 460.487C336.824 460.026 336.206 459.375 335.759 458.533C335.312 457.691 335.088 456.704 335.088 455.573ZM357.113 455.178C357.113 455.52 357.093 455.882 357.054 456.264H348.41C348.476 457.329 348.838 458.165 349.496 458.77C350.167 459.362 350.976 459.658 351.923 459.658C352.699 459.658 353.344 459.48 353.857 459.125C354.383 458.757 354.752 458.27 354.962 457.665H356.896C356.607 458.704 356.028 459.553 355.159 460.211C354.291 460.855 353.212 461.178 351.923 461.178C350.897 461.178 349.976 460.947 349.16 460.487C348.358 460.026 347.726 459.375 347.266 458.533C346.805 457.678 346.575 456.691 346.575 455.573C346.575 454.455 346.799 453.475 347.246 452.633C347.693 451.791 348.318 451.146 349.121 450.699C349.936 450.238 350.87 450.008 351.923 450.008C352.949 450.008 353.857 450.232 354.646 450.679C355.436 451.126 356.041 451.745 356.462 452.534C356.896 453.31 357.113 454.192 357.113 455.178ZM355.258 454.803C355.258 454.119 355.107 453.534 354.804 453.047C354.502 452.547 354.087 452.172 353.561 451.922C353.048 451.659 352.475 451.528 351.844 451.528C350.936 451.528 350.16 451.817 349.515 452.396C348.884 452.975 348.522 453.777 348.43 454.803H355.258ZM362.812 461.178C361.983 461.178 361.24 461.039 360.582 460.763C359.924 460.474 359.404 460.079 359.023 459.579C358.641 459.066 358.431 458.481 358.391 457.823H360.246C360.299 458.362 360.549 458.803 360.996 459.145C361.457 459.487 362.055 459.658 362.792 459.658C363.476 459.658 364.016 459.507 364.41 459.204C364.805 458.902 365.002 458.52 365.002 458.06C365.002 457.586 364.792 457.237 364.371 457.014C363.95 456.777 363.299 456.547 362.417 456.323C361.615 456.112 360.957 455.902 360.444 455.691C359.944 455.468 359.51 455.145 359.141 454.724C358.786 454.29 358.609 453.725 358.609 453.027C358.609 452.475 358.773 451.968 359.102 451.508C359.431 451.047 359.898 450.686 360.503 450.422C361.108 450.146 361.799 450.008 362.575 450.008C363.772 450.008 364.739 450.311 365.476 450.916C366.213 451.521 366.607 452.35 366.66 453.402H364.864C364.825 452.837 364.595 452.383 364.174 452.041C363.766 451.699 363.213 451.528 362.516 451.528C361.871 451.528 361.358 451.666 360.977 451.942C360.595 452.218 360.404 452.58 360.404 453.027C360.404 453.383 360.516 453.679 360.74 453.915C360.977 454.139 361.266 454.323 361.608 454.468C361.963 454.599 362.45 454.751 363.068 454.922C363.845 455.132 364.476 455.343 364.963 455.553C365.45 455.751 365.864 456.053 366.206 456.461C366.561 456.869 366.746 457.402 366.759 458.06C366.759 458.652 366.594 459.184 366.265 459.658C365.937 460.132 365.469 460.507 364.864 460.783C364.272 461.046 363.588 461.178 362.812 461.178ZM59.1104 478.186V489H57.3146V487.401C56.9725 487.954 56.4923 488.388 55.874 488.704C55.2688 489.007 54.5978 489.158 53.8611 489.158C53.0191 489.158 52.2626 488.987 51.5916 488.645C50.9207 488.29 50.3879 487.763 49.9932 487.066C49.6116 486.369 49.4209 485.52 49.4209 484.52V478.186H51.197V484.283C51.197 485.349 51.4667 486.171 52.0061 486.75C52.5455 487.316 53.2822 487.599 54.2163 487.599C55.1767 487.599 55.9332 487.303 56.4857 486.711C57.0383 486.119 57.3146 485.257 57.3146 484.126V478.186H59.1104ZM65.471 489.178C64.6422 489.178 63.8988 489.039 63.241 488.763C62.5832 488.474 62.0636 488.079 61.682 487.579C61.3005 487.066 61.09 486.481 61.0505 485.823H62.9056C62.9582 486.362 63.2081 486.803 63.6555 487.145C64.1159 487.487 64.7145 487.658 65.4513 487.658C66.1354 487.658 66.6748 487.507 67.0695 487.204C67.4642 486.902 67.6615 486.52 67.6615 486.06C67.6615 485.586 67.451 485.237 67.03 485.014C66.609 484.777 65.9578 484.547 65.0763 484.323C64.2738 484.112 63.616 483.902 63.1029 483.691C62.603 483.468 62.1688 483.145 61.8004 482.724C61.4452 482.29 61.2676 481.725 61.2676 481.027C61.2676 480.475 61.4321 479.968 61.761 479.508C62.0899 479.047 62.5569 478.686 63.1621 478.422C63.7673 478.146 64.458 478.008 65.2342 478.008C66.4314 478.008 67.3984 478.311 68.1351 478.916C68.8719 479.521 69.2666 480.35 69.3192 481.402H67.5234C67.4839 480.837 67.2537 480.383 66.8327 480.041C66.4248 479.699 65.8723 479.528 65.175 479.528C64.5303 479.528 64.0173 479.666 63.6357 479.942C63.2542 480.218 63.0634 480.58 63.0634 481.027C63.0634 481.383 63.1753 481.679 63.3989 481.915C63.6357 482.139 63.9252 482.323 64.2672 482.468C64.6224 482.599 65.1092 482.751 65.7276 482.922C66.5038 483.132 67.1353 483.343 67.622 483.553C68.1088 483.751 68.5232 484.053 68.8653 484.461C69.2205 484.869 69.4047 485.402 69.4179 486.06C69.4179 486.652 69.2534 487.184 68.9245 487.658C68.5956 488.132 68.1286 488.507 67.5234 488.783C66.9313 489.046 66.2472 489.178 65.471 489.178ZM72.3805 476.429C72.0384 476.429 71.749 476.311 71.5122 476.074C71.2753 475.837 71.1569 475.548 71.1569 475.206C71.1569 474.864 71.2753 474.574 71.5122 474.337C71.749 474.101 72.0384 473.982 72.3805 473.982C72.7094 473.982 72.9857 474.101 73.2093 474.337C73.4461 474.574 73.5645 474.864 73.5645 475.206C73.5645 475.548 73.4461 475.837 73.2093 476.074C72.9857 476.311 72.7094 476.429 72.3805 476.429ZM73.2488 478.186V489H71.453V478.186H73.2488ZM81.0785 477.988C82.3941 477.988 83.4598 478.389 84.2755 479.192C85.0911 479.981 85.499 481.126 85.499 482.626V489H83.7229V482.882C83.7229 481.804 83.4532 480.981 82.9138 480.416C82.3744 479.837 81.6376 479.547 80.7036 479.547C79.7563 479.547 78.9998 479.843 78.4341 480.435C77.8815 481.027 77.6053 481.889 77.6053 483.02V489H75.8094V478.186H77.6053V479.725C77.9605 479.172 78.4407 478.745 79.0459 478.442C79.6642 478.14 80.3418 477.988 81.0785 477.988ZM92.3924 478.008C93.3265 478.008 94.1422 478.212 94.8395 478.62C95.5499 479.028 96.0761 479.541 96.4182 480.159V478.186H98.2338V489.237C98.2338 490.223 98.0233 491.098 97.6023 491.861C97.1813 492.638 96.5761 493.243 95.7867 493.677C95.0105 494.111 94.1027 494.328 93.0634 494.328C91.6425 494.328 90.4584 493.993 89.5112 493.322C88.564 492.651 88.0048 491.736 87.8338 490.579H89.6099C89.8072 491.237 90.2151 491.763 90.8334 492.157C91.4517 492.565 92.1951 492.769 93.0634 492.769C94.0501 492.769 94.8526 492.46 95.471 491.842C96.1025 491.223 96.4182 490.355 96.4182 489.237V486.967C96.063 487.599 95.5367 488.125 94.8395 488.546C94.1422 488.967 93.3265 489.178 92.3924 489.178C91.432 489.178 90.5571 488.941 89.7677 488.467C88.9915 487.994 88.3798 487.329 87.9325 486.474C87.4851 485.619 87.2615 484.645 87.2615 483.553C87.2615 482.448 87.4851 481.481 87.9325 480.652C88.3798 479.81 88.9915 479.159 89.7677 478.699C90.5571 478.238 91.432 478.008 92.3924 478.008ZM96.4182 483.573C96.4182 482.757 96.2538 482.047 95.9249 481.442C95.5959 480.837 95.1486 480.376 94.5829 480.06C94.0304 479.731 93.4186 479.567 92.7476 479.567C92.0767 479.567 91.4649 479.725 90.9123 480.041C90.3598 480.356 89.919 480.817 89.5901 481.422C89.2612 482.027 89.0968 482.738 89.0968 483.553C89.0968 484.382 89.2612 485.106 89.5901 485.724C89.919 486.329 90.3598 486.796 90.9123 487.125C91.4649 487.441 92.0767 487.599 92.7476 487.599C93.4186 487.599 94.0304 487.441 94.5829 487.125C95.1486 486.796 95.5959 486.329 95.9249 485.724C96.2538 485.106 96.4182 484.389 96.4182 483.573ZM104.859 483.553C104.859 482.448 105.082 481.481 105.53 480.652C105.977 479.81 106.589 479.159 107.365 478.699C108.154 478.238 109.029 478.008 109.99 478.008C110.937 478.008 111.759 478.212 112.456 478.62C113.154 479.028 113.673 479.541 114.015 480.159V478.186H115.831V489H114.015V486.987C113.66 487.619 113.127 488.145 112.417 488.566C111.72 488.974 110.904 489.178 109.97 489.178C109.01 489.178 108.141 488.941 107.365 488.467C106.589 487.994 105.977 487.329 105.53 486.474C105.082 485.619 104.859 484.645 104.859 483.553ZM114.015 483.573C114.015 482.757 113.851 482.047 113.522 481.442C113.193 480.837 112.746 480.376 112.18 480.06C111.628 479.731 111.016 479.567 110.345 479.567C109.674 479.567 109.062 479.725 108.51 480.041C107.957 480.356 107.516 480.817 107.187 481.422C106.859 482.027 106.694 482.738 106.694 483.553C106.694 484.382 106.859 485.106 107.187 485.724C107.516 486.329 107.957 486.796 108.51 487.125C109.062 487.441 109.674 487.599 110.345 487.599C111.016 487.599 111.628 487.441 112.18 487.125C112.746 486.796 113.193 486.329 113.522 485.724C113.851 485.106 114.015 484.389 114.015 483.573ZM117.695 483.553C117.695 482.448 117.918 481.481 118.366 480.652C118.813 479.81 119.425 479.159 120.201 478.699C120.99 478.238 121.872 478.008 122.845 478.008C123.687 478.008 124.47 478.205 125.194 478.6C125.917 478.982 126.47 479.488 126.852 480.12V474.397H128.667V489H126.852V486.967C126.496 487.612 125.97 488.145 125.273 488.566C124.576 488.974 123.76 489.178 122.826 489.178C121.865 489.178 120.99 488.941 120.201 488.467C119.425 487.994 118.813 487.329 118.366 486.474C117.918 485.619 117.695 484.645 117.695 483.553ZM126.852 483.573C126.852 482.757 126.687 482.047 126.358 481.442C126.029 480.837 125.582 480.376 125.016 480.06C124.464 479.731 123.852 479.567 123.181 479.567C122.51 479.567 121.898 479.725 121.346 480.041C120.793 480.356 120.352 480.817 120.023 481.422C119.695 482.027 119.53 482.738 119.53 483.553C119.53 484.382 119.695 485.106 120.023 485.724C120.352 486.329 120.793 486.796 121.346 487.125C121.898 487.441 122.51 487.599 123.181 487.599C123.852 487.599 124.464 487.441 125.016 487.125C125.582 486.796 126.029 486.329 126.358 485.724C126.687 485.106 126.852 484.389 126.852 483.573ZM135.228 487.342L138.582 478.186H140.497L136.254 489H134.162L129.919 478.186H131.853L135.228 487.342ZM141.093 483.553C141.093 482.448 141.317 481.481 141.764 480.652C142.211 479.81 142.823 479.159 143.599 478.699C144.389 478.238 145.263 478.008 146.224 478.008C147.171 478.008 147.993 478.212 148.691 478.62C149.388 479.028 149.908 479.541 150.25 480.159V478.186H152.065V489H150.25V486.987C149.894 487.619 149.362 488.145 148.651 488.566C147.954 488.974 147.138 489.178 146.204 489.178C145.244 489.178 144.375 488.941 143.599 488.467C142.823 487.994 142.211 487.329 141.764 486.474C141.317 485.619 141.093 484.645 141.093 483.553ZM150.25 483.573C150.25 482.757 150.085 482.047 149.756 481.442C149.427 480.837 148.98 480.376 148.414 480.06C147.862 479.731 147.25 479.567 146.579 479.567C145.908 479.567 145.296 479.725 144.744 480.041C144.191 480.356 143.75 480.817 143.422 481.422C143.093 482.027 142.928 482.738 142.928 483.553C142.928 484.382 143.093 485.106 143.422 485.724C143.75 486.329 144.191 486.796 144.744 487.125C145.296 487.441 145.908 487.599 146.579 487.599C147.25 487.599 147.862 487.441 148.414 487.125C148.98 486.796 149.427 486.329 149.756 485.724C150.085 485.106 150.25 484.389 150.25 483.573ZM159.869 477.988C161.185 477.988 162.25 478.389 163.066 479.192C163.882 479.981 164.289 481.126 164.289 482.626V489H162.513V482.882C162.513 481.804 162.244 480.981 161.704 480.416C161.165 479.837 160.428 479.547 159.494 479.547C158.547 479.547 157.79 479.843 157.225 480.435C156.672 481.027 156.396 481.889 156.396 483.02V489H154.6V478.186H156.396V479.725C156.751 479.172 157.231 478.745 157.836 478.442C158.455 478.14 159.132 477.988 159.869 477.988ZM166.052 483.573C166.052 482.455 166.276 481.481 166.723 480.652C167.17 479.81 167.789 479.159 168.578 478.699C169.381 478.238 170.295 478.008 171.321 478.008C172.65 478.008 173.742 478.33 174.597 478.975C175.465 479.62 176.038 480.514 176.314 481.659H174.38C174.196 481.001 173.834 480.481 173.294 480.1C172.768 479.718 172.11 479.528 171.321 479.528C170.295 479.528 169.466 479.883 168.835 480.593C168.203 481.29 167.887 482.284 167.887 483.573C167.887 484.876 168.203 485.882 168.835 486.592C169.466 487.303 170.295 487.658 171.321 487.658C172.11 487.658 172.768 487.474 173.294 487.105C173.821 486.737 174.183 486.211 174.38 485.527H176.314C176.024 486.632 175.446 487.52 174.577 488.191C173.709 488.849 172.624 489.178 171.321 489.178C170.295 489.178 169.381 488.947 168.578 488.487C167.789 488.026 167.17 487.375 166.723 486.533C166.276 485.691 166.052 484.704 166.052 483.573ZM188.077 483.178C188.077 483.52 188.057 483.882 188.018 484.264H179.374C179.44 485.329 179.802 486.165 180.46 486.77C181.131 487.362 181.94 487.658 182.887 487.658C183.663 487.658 184.308 487.48 184.821 487.125C185.347 486.757 185.716 486.27 185.926 485.665H187.86C187.571 486.704 186.992 487.553 186.123 488.211C185.255 488.855 184.176 489.178 182.887 489.178C181.861 489.178 180.94 488.947 180.124 488.487C179.322 488.026 178.69 487.375 178.23 486.533C177.769 485.678 177.539 484.691 177.539 483.573C177.539 482.455 177.763 481.475 178.21 480.633C178.657 479.791 179.282 479.146 180.085 478.699C180.9 478.238 181.835 478.008 182.887 478.008C183.913 478.008 184.821 478.232 185.61 478.679C186.4 479.126 187.005 479.745 187.426 480.534C187.86 481.31 188.077 482.192 188.077 483.178ZM186.222 482.803C186.222 482.119 186.071 481.534 185.768 481.047C185.466 480.547 185.051 480.172 184.525 479.922C184.012 479.659 183.44 479.528 182.808 479.528C181.9 479.528 181.124 479.817 180.479 480.396C179.848 480.975 179.486 481.777 179.394 482.803H186.222ZM189.277 483.553C189.277 482.448 189.5 481.481 189.948 480.652C190.395 479.81 191.007 479.159 191.783 478.699C192.572 478.238 193.454 478.008 194.427 478.008C195.269 478.008 196.052 478.205 196.776 478.6C197.499 478.982 198.052 479.488 198.433 480.12V474.397H200.249V489H198.433V486.967C198.078 487.612 197.552 488.145 196.855 488.566C196.157 488.974 195.342 489.178 194.408 489.178C193.447 489.178 192.572 488.941 191.783 488.467C191.007 487.994 190.395 487.329 189.948 486.474C189.5 485.619 189.277 484.645 189.277 483.553ZM198.433 483.573C198.433 482.757 198.269 482.047 197.94 481.442C197.611 480.837 197.164 480.376 196.598 480.06C196.045 479.731 195.434 479.567 194.763 479.567C194.092 479.567 193.48 479.725 192.927 480.041C192.375 480.356 191.934 480.817 191.605 481.422C191.276 482.027 191.112 482.738 191.112 483.553C191.112 484.382 191.276 485.106 191.605 485.724C191.934 486.329 192.375 486.796 192.927 487.125C193.48 487.441 194.092 487.599 194.763 487.599C195.434 487.599 196.045 487.441 196.598 487.125C197.164 486.796 197.611 486.329 197.94 485.724C198.269 485.106 198.433 484.389 198.433 483.573ZM217.412 483.178C217.412 483.52 217.392 483.882 217.353 484.264H208.709C208.775 485.329 209.137 486.165 209.795 486.77C210.466 487.362 211.275 487.658 212.222 487.658C212.998 487.658 213.643 487.48 214.156 487.125C214.682 486.757 215.05 486.27 215.261 485.665H217.195C216.905 486.704 216.327 487.553 215.458 488.211C214.59 488.855 213.511 489.178 212.222 489.178C211.196 489.178 210.275 488.947 209.459 488.487C208.657 488.026 208.025 487.375 207.565 486.533C207.104 485.678 206.874 484.691 206.874 483.573C206.874 482.455 207.098 481.475 207.545 480.633C207.992 479.791 208.617 479.146 209.42 478.699C210.235 478.238 211.169 478.008 212.222 478.008C213.248 478.008 214.156 478.232 214.945 478.679C215.735 479.126 216.34 479.745 216.761 480.534C217.195 481.31 217.412 482.192 217.412 483.178ZM215.557 482.803C215.557 482.119 215.406 481.534 215.103 481.047C214.8 480.547 214.386 480.172 213.86 479.922C213.347 479.659 212.774 479.528 212.143 479.528C211.235 479.528 210.459 479.817 209.814 480.396C209.183 480.975 208.821 481.777 208.729 482.803H215.557ZM218.611 483.553C218.611 482.448 218.835 481.481 219.282 480.652C219.73 479.81 220.341 479.159 221.118 478.699C221.907 478.238 222.789 478.008 223.762 478.008C224.696 478.008 225.512 478.218 226.209 478.639C226.92 479.047 227.439 479.554 227.768 480.159V478.186H229.584V494.131H227.768V487.007C227.426 487.612 226.9 488.125 226.189 488.546C225.479 488.967 224.65 489.178 223.703 489.178C222.756 489.178 221.894 488.941 221.118 488.467C220.341 487.994 219.73 487.329 219.282 486.474C218.835 485.619 218.611 484.645 218.611 483.553ZM227.768 483.573C227.768 482.757 227.604 482.047 227.275 481.442C226.946 480.837 226.499 480.376 225.933 480.06C225.38 479.731 224.769 479.567 224.098 479.567C223.427 479.567 222.815 479.725 222.262 480.041C221.71 480.356 221.269 480.817 220.94 481.422C220.611 482.027 220.447 482.738 220.447 483.553C220.447 484.382 220.611 485.106 220.94 485.724C221.269 486.329 221.71 486.796 222.262 487.125C222.815 487.441 223.427 487.599 224.098 487.599C224.769 487.599 225.38 487.441 225.933 487.125C226.499 486.796 226.946 486.329 227.275 485.724C227.604 485.106 227.768 484.389 227.768 483.573ZM241.709 478.186V489H239.914V487.401C239.571 487.954 239.091 488.388 238.473 488.704C237.868 489.007 237.197 489.158 236.46 489.158C235.618 489.158 234.862 488.987 234.191 488.645C233.52 488.29 232.987 487.763 232.592 487.066C232.211 486.369 232.02 485.52 232.02 484.52V478.186H233.796V484.283C233.796 485.349 234.066 486.171 234.605 486.75C235.144 487.316 235.881 487.599 236.815 487.599C237.776 487.599 238.532 487.303 239.085 486.711C239.637 486.119 239.914 485.257 239.914 484.126V478.186H241.709ZM245.169 476.429C244.827 476.429 244.538 476.311 244.301 476.074C244.064 475.837 243.945 475.548 243.945 475.206C243.945 474.864 244.064 474.574 244.301 474.337C244.538 474.101 244.827 473.982 245.169 473.982C245.498 473.982 245.774 474.101 245.998 474.337C246.235 474.574 246.353 474.864 246.353 475.206C246.353 475.548 246.235 475.837 245.998 476.074C245.774 476.311 245.498 476.429 245.169 476.429ZM246.037 478.186V489H244.242V478.186H246.037ZM250.394 480.179C250.749 479.56 251.275 479.047 251.973 478.639C252.683 478.218 253.505 478.008 254.439 478.008C255.4 478.008 256.268 478.238 257.044 478.699C257.834 479.159 258.452 479.81 258.899 480.652C259.347 481.481 259.57 482.448 259.57 483.553C259.57 484.645 259.347 485.619 258.899 486.474C258.452 487.329 257.834 487.994 257.044 488.467C256.268 488.941 255.4 489.178 254.439 489.178C253.518 489.178 252.703 488.974 251.992 488.566C251.295 488.145 250.762 487.625 250.394 487.007V494.131H248.598V478.186H250.394V480.179ZM257.735 483.553C257.735 482.738 257.571 482.027 257.242 481.422C256.913 480.817 256.465 480.356 255.9 480.041C255.347 479.725 254.735 479.567 254.064 479.567C253.407 479.567 252.795 479.731 252.229 480.06C251.677 480.376 251.229 480.843 250.887 481.461C250.558 482.067 250.394 482.771 250.394 483.573C250.394 484.389 250.558 485.106 250.887 485.724C251.229 486.329 251.677 486.796 252.229 487.125C252.795 487.441 253.407 487.599 254.064 487.599C254.735 487.599 255.347 487.441 255.9 487.125C256.465 486.796 256.913 486.329 257.242 485.724C257.571 485.106 257.735 484.382 257.735 483.553ZM274.439 477.988C275.281 477.988 276.031 478.166 276.689 478.521C277.346 478.863 277.866 479.383 278.248 480.08C278.629 480.777 278.82 481.626 278.82 482.626V489H277.044V482.882C277.044 481.804 276.774 480.981 276.235 480.416C275.709 479.837 274.992 479.547 274.084 479.547C273.15 479.547 272.406 479.85 271.854 480.455C271.301 481.047 271.025 481.909 271.025 483.04V489H269.249V482.882C269.249 481.804 268.979 480.981 268.44 480.416C267.913 479.837 267.196 479.547 266.289 479.547C265.355 479.547 264.611 479.85 264.059 480.455C263.506 481.047 263.23 481.909 263.23 483.04V489H261.434V478.186H263.23V479.745C263.585 479.179 264.059 478.745 264.651 478.442C265.256 478.14 265.92 477.988 266.644 477.988C267.552 477.988 268.354 478.192 269.052 478.6C269.749 479.008 270.268 479.606 270.611 480.396C270.913 479.633 271.413 479.041 272.11 478.62C272.808 478.199 273.584 477.988 274.439 477.988ZM291.133 483.178C291.133 483.52 291.113 483.882 291.074 484.264H282.43C282.496 485.329 282.858 486.165 283.515 486.77C284.186 487.362 284.996 487.658 285.943 487.658C286.719 487.658 287.364 487.48 287.877 487.125C288.403 486.757 288.771 486.27 288.982 485.665H290.916C290.626 486.704 290.048 487.553 289.179 488.211C288.311 488.855 287.232 489.178 285.943 489.178C284.917 489.178 283.996 488.947 283.18 488.487C282.377 488.026 281.746 487.375 281.286 486.533C280.825 485.678 280.595 484.691 280.595 483.573C280.595 482.455 280.818 481.475 281.266 480.633C281.713 479.791 282.338 479.146 283.141 478.699C283.956 478.238 284.89 478.008 285.943 478.008C286.969 478.008 287.877 478.232 288.666 478.679C289.456 479.126 290.061 479.745 290.482 480.534C290.916 481.31 291.133 482.192 291.133 483.178ZM289.278 482.803C289.278 482.119 289.127 481.534 288.824 481.047C288.521 480.547 288.107 480.172 287.581 479.922C287.068 479.659 286.495 479.528 285.864 479.528C284.956 479.528 284.18 479.817 283.535 480.396C282.904 480.975 282.542 481.777 282.45 482.803H289.278ZM298.272 477.988C299.588 477.988 300.654 478.389 301.469 479.192C302.285 479.981 302.693 481.126 302.693 482.626V489H300.917V482.882C300.917 481.804 300.647 480.981 300.108 480.416C299.568 479.837 298.832 479.547 297.897 479.547C296.95 479.547 296.194 479.843 295.628 480.435C295.075 481.027 294.799 481.889 294.799 483.02V489H293.003V478.186H294.799V479.725C295.154 479.172 295.635 478.745 296.24 478.442C296.858 478.14 297.536 477.988 298.272 477.988ZM307.317 479.666V486.04C307.317 486.566 307.429 486.941 307.652 487.165C307.876 487.375 308.264 487.48 308.817 487.48H310.139V489H308.521C307.521 489 306.771 488.77 306.271 488.309C305.771 487.849 305.521 487.092 305.521 486.04V479.666H304.12V478.186H305.521V475.462H307.317V478.186H310.139V479.666H307.317ZM315.643 489.178C314.814 489.178 314.071 489.039 313.413 488.763C312.755 488.474 312.236 488.079 311.854 487.579C311.473 487.066 311.262 486.481 311.223 485.823H313.078C313.13 486.362 313.38 486.803 313.828 487.145C314.288 487.487 314.887 487.658 315.623 487.658C316.308 487.658 316.847 487.507 317.242 487.204C317.636 486.902 317.834 486.52 317.834 486.06C317.834 485.586 317.623 485.237 317.202 485.014C316.781 484.777 316.13 484.547 315.249 484.323C314.446 484.112 313.788 483.902 313.275 483.691C312.775 483.468 312.341 483.145 311.973 482.724C311.617 482.29 311.44 481.725 311.44 481.027C311.44 480.475 311.604 479.968 311.933 479.508C312.262 479.047 312.729 478.686 313.334 478.422C313.939 478.146 314.63 478.008 315.406 478.008C316.604 478.008 317.571 478.311 318.307 478.916C319.044 479.521 319.439 480.35 319.491 481.402H317.696C317.656 480.837 317.426 480.383 317.005 480.041C316.597 479.699 316.044 479.528 315.347 479.528C314.703 479.528 314.189 479.666 313.808 479.942C313.426 480.218 313.236 480.58 313.236 481.027C313.236 481.383 313.347 481.679 313.571 481.915C313.808 482.139 314.097 482.323 314.439 482.468C314.795 482.599 315.281 482.751 315.9 482.922C316.676 483.132 317.307 483.343 317.794 483.553C318.281 483.751 318.695 484.053 319.038 484.461C319.393 484.869 319.577 485.402 319.59 486.06C319.59 486.652 319.426 487.184 319.097 487.658C318.768 488.132 318.301 488.507 317.696 488.783C317.104 489.046 316.419 489.178 315.643 489.178ZM322.197 489.118C321.855 489.118 321.566 489 321.329 488.763C321.092 488.526 320.974 488.237 320.974 487.895C320.974 487.553 321.092 487.263 321.329 487.027C321.566 486.79 321.855 486.671 322.197 486.671C322.526 486.671 322.803 486.79 323.026 487.027C323.263 487.263 323.382 487.553 323.382 487.895C323.382 488.237 323.263 488.526 323.026 488.763C322.803 489 322.526 489.118 322.197 489.118Z" fill="#939393"/>
<ellipse cx="77.4185" cy="84.6901" rx="39.4185" ry="40.6901" fill="#5D5D5D"/>
<g clip-path="url(#clip0_409_895)">
<path d="M79.7909 64.1327L93.9768 72.3605C95.4359 73.209 96.333 74.7654 96.333 76.4515V92.9287C96.3331 93.7573 96.1155 94.5713 95.7019 95.2893C95.2884 96.0073 94.6935 96.604 93.9768 97.0197L79.7909 105.247C79.0701 105.666 78.2517 105.886 77.4184 105.886C76.5852 105.886 75.7668 105.666 75.046 105.247L60.8601 97.0197C60.1434 96.604 59.5485 96.0073 59.135 95.2893C58.7214 94.5713 58.5038 93.7573 58.5039 92.9287V76.4515C58.5039 74.7654 59.401 73.2063 60.8601 72.3605L75.046 64.1327C75.7668 63.7147 76.5852 63.4945 77.4184 63.4945C78.2517 63.4945 79.0701 63.7147 79.7909 64.1327ZM77.0807 67.64L64.5701 74.8951L77.4184 82.3474L90.2668 74.8951L77.7562 67.64C77.6537 67.5802 77.5371 67.5486 77.4184 67.5486C77.2998 67.5486 77.1832 67.5802 77.0807 67.64ZM62.557 78.4132V92.9287C62.557 93.1719 62.684 93.3908 62.8948 93.5124L75.3919 100.762V85.8574L62.557 78.4132ZM79.445 100.762L91.9421 93.5124C92.0446 93.4532 92.1297 93.3681 92.189 93.2657C92.2483 93.1633 92.2796 93.0471 92.2799 92.9287V78.4132L79.445 85.8574V100.762Z" fill="white"/>
</g>
<defs>
<clipPath id="clip0_409_895">
<rect width="43.2332" height="43.2332" fill="white" transform="translate(55.8018 63.0735)"/>
</clipPath>
</defs>
</svg>
